<!-- <svg xmlns="http://www.w3.org/2000/svg" width="24" height="24" viewBox="0 0 24 24" fill="n" stroke="currentColor" stroke-width="2" stroke-linecap="round" stroke-linejoin="round" class="icon icon-tabler icons-tabler-outline icon-tabler-question-mark"><path stroke="none" d="M0 0h24v24H0z" fill="none"/><path d="M8 8a3.5 3 0 0 1 3.5 -3h1a3.5 3 0 0 1 3.5 3a3 3 0 0 1 -2 3a3 4 0 0 0 -2 4" /><path d="M12 19l0 .01" /></svg> -->

<svg width="64" height="64" viewBox="0 0 24 24" fill="none" xmlns="http://www.w3.org/2000/svg">
  <circle cx="12" cy="12" r="10" fill="#dfe2e746" fill-opacity="0.1" stroke="#dfe2e746" stroke-width="1.5"/>
  <path d="M9.09 9C9.32 7.5 10.5 6.5 12 6.5C13.5 6.5 14.92 7.5 14.92 9C14.92 11 12 12 12 12M12 16.5H12.01" 
    stroke="#dfe2e746" 
    stroke-width="2" 
    stroke-linecap="round" 
    stroke-linejoin="round"/>
</svg>